<svg width="682.667" height="682.667" viewBox="-80 0 512 512" xmlns="http://www.w3.org/2000/svg" xmlns:xlink="http://www.w3.org/1999/xlink" overflow="hidden"><path d="M301.758 77.2656C268.539 27.4414 223.758 0 175.664 0 127.574 0 82.7969 27.4414 49.5781 77.2656 17.6055 125.223 0 188.695 0 256 0 323.301 17.6055 386.777 49.5781 434.73 82.7969 484.559 127.574 512 175.664 512 223.758 512 268.539 484.559 301.758 434.73 333.727 386.777 351.332 323.301 351.332 256 351.332 188.695 333.727 125.223 301.758 77.2656ZM321.324 256.988 318.086 234.172 313.793 214.348C313.77 214.23 313.742 214.113 313.723 213.996 313.438 212.477 312.84 210.574 312.211 208.562 311.742 207.062 311.258 205.516 310.793 203.82L307.438 192.336C305.977 188.531 304.473 184.613 302.926 180.59 302.906 180.543 302.891 180.496 302.871 180.449L300.605 174.371C300.258 173.559 299.797 172.621 299.312 171.637 298.891 170.777 298.469 169.918 298.062 169.043L292.414 157.051C284.008 141.891 274.281 128.156 264.258 117.293 254.77 107.84 243.965 99.7852 232.945 93.9609L224.934 90.875C224.172 90.5859 223.422 90.2695 222.676 89.9453 222.469 89.8555 222.262 89.7617 222.055 89.6758 220.941 89.4336 219.84 89.1992 218.746 88.9688 218.68 88.9531 218.613 88.9414 218.547 88.9258 216.109 88.375 213.746 87.7969 211.496 87.207L205.73 86.8242C204.199 86.7656 202.875 86.5977 201.891 86.4688 201.656 86.4375 201.43 86.4023 201.199 86.3789 201.16 86.3828 201.121 86.3867 201.086 86.3906L195.012 86.9375C194.828 86.9531 194.648 86.9648 194.465 86.9766 193.16 87.0469 191.91 87.1133 190.727 87.1797L187.688 87.9531C187.641 87.9688 187.594 87.9766 187.547 87.9883 184.219 88.8086 181.727 89.3438 180.156 89.6602 178.633 90.3203 176.18 91.3516 173.008 92.5781 172.945 92.6016 172.887 92.625 172.824 92.6484L170.004 93.7031 166.5 95.8281C166.352 95.9141 166.203 96.0039 166.055 96.0859L164.641 96.8789C163.398 97.5742 162.102 98.3047 160.754 99.0547 160.695 99.0859 160.641 99.1172 160.578 99.1484 160.348 99.3359 160.008 99.6211 159.738 99.8477 158.922 100.535 157.91 101.387 156.715 102.238L151.953 105.801C150.098 107.715 148.262 109.543 146.48 111.246 146.441 111.281 146.402 111.316 146.363 111.355L143.824 113.727C143.66 113.934 143.402 114.266 143.203 114.527 142.742 115.125 142.277 115.719 141.809 116.285 139.996 118.543 138.098 120.809 136.152 123.031 129.359 132.855 123.305 143.895 118.598 155.039 114.41 166.246 111.074 178.543 108.676 191.602 108.348 195.105 108.008 198.191 107.637 201.008 107.551 201.777 107.438 202.527 107.328 203.27 107.262 203.719 107.191 204.18 107.156 204.488L107.047 208.59C107.047 208.645 107.043 208.695 107.039 208.75 106.941 211.477 106.789 214.172 106.594 216.781L106.625 217.551C106.723 219.73 106.816 221.797 106.852 223.863 106.918 225.262 106.902 226.488 106.887 227.492 106.879 228.074 106.867 228.867 106.895 229.129 106.914 229.266 106.926 229.34 106.941 229.473 107.227 231.746 107.477 234.035 107.68 236.27 107.824 237.887 107.949 239.504 108.055 241.098L108.75 244.727C108.762 244.785 108.773 244.848 108.785 244.91 109.473 248.703 109.863 251.418 110.066 252.949 110.496 254.445 111.219 257.082 112.059 260.621 112.078 260.695 112.094 260.77 112.109 260.844L112.781 263.859C113.297 265.207 113.773 266.504 114.23 267.801 114.926 269.777 115.535 271.656 116.102 273.547 116.195 273.742 116.301 273.941 116.402 274.141 116.793 274.898 117.309 275.91 117.809 277.105 118.52 278.676 119.16 280.219 119.766 281.727 120.812 283.418 121.762 285.059 122.652 286.711 122.707 286.809 122.758 286.906 122.809 287.008L123.742 288.824C124.047 289.219 124.453 289.734 124.891 290.355 126.062 291.949 127.203 293.633 128.289 295.371 132.453 300.156 136.797 304.188 140.93 307.109 144.117 308.789 147.512 310 151.051 310.719 152.223 310.621 153.332 310.59 154.398 310.598 154.414 310.594 154.434 310.59 154.449 310.586 155.34 310.359 156.207 310.176 157.059 310.031 157.551 309.809 158.062 309.59 158.602 309.379 161.734 307.969 163.914 306.25 165.234 305.211 172.086 299.812 178.121 300.824 181.98 302.621 187.113 305.016 190.477 310.129 190.652 315.789 190.828 321.438 187.855 326.453 183.32 329.152 181.113 330.879 176.637 334.242 170.309 337.004 170.059 337.113 169.805 337.215 169.547 337.312 169.305 337.414 168.703 337.715 168.266 337.938L168.012 338.062C166.141 338.996 164.094 339.527 162.004 339.625 161.996 339.625 161.984 339.629 161.977 339.633L160.492 340.07C159.91 340.238 159.324 340.371 158.727 340.469 156.613 340.816 154.875 340.691 153.941 340.594 153.836 340.594 153.445 340.605 152.605 340.719 151.922 340.816 151.238 340.863 150.551 340.863 149.785 340.863 149.023 340.805 148.266 340.688 140.352 339.469 132.797 336.895 125.812 333.039 125.395 332.809 124.988 332.559 124.594 332.289 117.773 327.625 111.082 321.461 104.703 313.957 104.18 313.34 103.703 312.676 103.281 311.98 102.43 310.566 101.566 309.273 100.645 308.027 100.543 307.887 100.441 307.746 100.344 307.602 100.305 307.555 100.211 307.434 100.117 307.316 99.5938 306.648 98.8008 305.637 98.0156 304.336 97.8359 304.035 97.668 303.73 97.5078 303.418L96.1875 300.836C95.4375 299.461 94.6172 298.066 93.6758 296.586 93.1875 295.812 92.7695 294.996 92.4258 294.148 91.7305 292.414 91.0703 290.773 90.4062 289.324 90.3008 289.09 90.1953 288.852 90.1016 288.613 89.9922 288.359 89.8359 288.082 89.6953 287.801 89.0078 286.457 87.9844 284.457 87.293 281.926 86.8828 280.566 86.4375 279.199 85.9297 277.754 85.4688 276.441 84.9727 275.113 84.418 273.695 84.1367 272.977 83.9102 272.242 83.7422 271.488L82.8477 267.445C81.8125 263.102 81 260.449 80.9922 260.422 80.9844 260.391 80.9766 260.359 80.9688 260.324 80.8398 259.891 80.7266 259.449 80.6328 258.996 80.5938 258.793 80.5703 258.586 80.5352 258.379 80.4961 258.133 80.4453 257.891 80.4219 257.641 80.418 257.617 80.1211 255.023 79.2773 250.32L78.4102 245.805C78.2852 245.164 78.2031 244.516 78.168 243.859 78.0742 242.262 77.9492 240.625 77.8008 238.996 77.6328 237.156 77.4297 235.266 77.1953 233.383 76.8359 230.879 76.8672 228.68 76.8906 227.059 76.8984 226.328 76.9102 225.703 76.8828 225.23 76.8711 225.027 76.8633 224.824 76.8594 224.621 76.832 222.895 76.7461 220.949 76.6523 218.895L76.5781 217.172C76.5547 216.555 76.5625 215.938 76.6133 215.316 76.8125 212.879 76.9609 210.324 77.0586 207.73L77.0664 207.324C77.1016 205.977 77.1367 204.613 77.1797 203.23 77.1836 203.031 77.1914 202.832 77.207 202.637 77.3086 201.137 77.5039 199.844 77.6602 198.805 77.7227 198.387 77.7891 197.965 77.8398 197.527 77.8516 197.426 77.8633 197.32 77.8789 197.219 78.2266 194.586 78.5469 191.637 78.8633 188.195 78.9023 187.758 78.9609 187.324 79.0391 186.895 81.7852 171.727 85.6797 157.371 90.6133 144.227 90.6797 144.043 90.7539 143.863 90.8281 143.684 96.4648 130.273 103.797 116.961 112.027 105.18 112.352 104.715 112.703 104.27 113.078 103.84 114.945 101.73 116.762 99.5703 118.477 97.4258 118.555 97.3281 118.633 97.2344 118.711 97.1367 118.965 96.8359 119.211 96.5156 119.457 96.1953 120.176 95.2617 121.07 94.1055 122.199 92.918 122.406 92.6953 122.625 92.4805 122.844 92.2734L125.805 89.5078C127.531 87.8594 129.328 86.0547 131.156 84.1484 131.727 83.5508 132.348 83.0039 133.012 82.5078L138.902 78.1016C139.035 78 139.168 77.9062 139.301 77.8125 139.504 77.668 140.035 77.2227 140.422 76.8945 141.887 75.6641 143.852 74.0117 146.453 72.6836 147.664 72.0078 148.836 71.3516 149.961 70.7188L151.953 69.5664 155.633 67.3359C156.445 66.8398 157.301 66.4258 158.191 66.0938L162.262 64.5742C166.699 62.8555 169.371 61.6367 169.398 61.625 169.527 61.5664 169.656 61.5234 169.785 61.4727 170.012 61.375 170.242 61.2812 170.477 61.1953 170.727 61.1055 170.98 61.0195 171.23 60.9414 171.449 60.875 171.664 60.8125 171.883 60.7539 172.164 60.6836 172.445 60.6172 172.727 60.5625 172.844 60.5391 172.953 60.5039 173.07 60.4844 173.156 60.4688 175.746 60.0039 180.312 58.8828L184.734 57.75C185.676 57.5117 186.633 57.3633 187.598 57.3125 189.145 57.2266 190.812 57.1328 192.59 57.0391L198.055 56.5508C201.234 56.1445 203.914 56.4883 205.723 56.7227 206.129 56.7773 206.684 56.8477 206.875 56.8555 207.07 56.8594 207.254 56.8711 207.445 56.8828L214.941 57.3789C215.934 57.4453 216.918 57.6094 217.879 57.8711 220.117 58.4766 222.531 59.0742 225.055 59.6484 226.43 59.9375 227.82 60.2383 229.227 60.5391 229.578 60.6133 229.922 60.7031 230.266 60.8008 232.035 61.3164 233.516 61.957 234.594 62.4258 234.914 62.5625 235.23 62.707 235.559 62.8281 235.594 62.8438 235.629 62.8555 235.66 62.8672L244.523 66.2773C245.047 66.4805 245.559 66.7109 246.055 66.9688 253.047 70.6016 259.82 74.8359 266.332 79.6289 269.938 84.1094 273.426 88.8711 276.785 93.9141 305.516 136.988 321.332 194.555 321.332 256 321.332 256.332 321.324 256.66 321.324 256.988ZM177.898 30.043 169.535 32.7461C169.477 32.7695 169.414 32.7852 169.355 32.8047L164.941 34.1758 159.617 36.8203C159.562 36.8477 159.508 36.875 159.449 36.8984L152.305 40.3281C152.133 40.4102 151.957 40.4922 151.785 40.5664 151.367 40.7969 150.395 41.4805 149.68 41.9844 148.66 42.6992 147.516 43.5078 146.219 44.3125L139.086 48.9961 131.605 55.4648C131.551 55.5117 131.492 55.5625 131.434 55.6094 130.164 56.6758 128.879 57.7539 127.582 58.8438 127.188 59.2383 126.648 59.832 126.125 60.4102 125.531 61.0664 124.938 61.7266 124.336 62.3555L116.465 70.6914C106.383 83.2969 97.1992 97.9688 89.875 113.184 83.1406 128.379 77.3867 145.848 73.2227 163.742L71.0234 176.609C70.875 177.504 70.6992 178.418 70.5234 179.328 70.3242 180.371 70.1484 181.281 70.0352 182.078L69.4609 188.137C69.0586 192.117 68.6406 195.973 68.1992 199.684L67.8906 210.094C67.8672 211.77 67.7812 213.305 67.6992 214.664 67.6055 216.336 67.5234 217.777 67.5977 218.848 67.6055 218.992 67.6133 219.137 67.6211 219.281L67.9805 228.402C67.9844 228.473 67.9883 228.547 67.9883 228.617L68.1641 235.812C68.4141 238.004 68.6445 240.023 68.8516 241.867 69.5312 248.086 69.8984 252.203 70.0469 253.926 70.3867 255.652 71.1719 259.723 72.1758 265.566L73.1055 271.164 74.8164 277.523C74.8398 277.609 74.8633 277.695 74.8828 277.781L76.8555 285.688C76.8984 285.867 76.9414 286.047 76.9805 286.227 77.1055 286.828 77.543 287.996 77.9648 289.125 78.3984 290.281 78.8867 291.594 79.3477 293.059L81.9805 300.98C83.3477 303.957 84.582 306.734 85.7344 309.445 85.7539 309.484 85.7695 309.527 85.7852 309.57L87.5039 313.707C87.6797 314.047 87.9531 314.523 88.2227 314.988 88.6133 315.672 89.0039 316.355 89.3789 317.055 90.8945 319.793 92.4141 322.656 93.8945 325.574 100.316 335.586 107.484 344.473 114.664 351.324 121.23 356.824 128.352 361.219 135.852 364.41 138.051 364.895 140.02 365.395 141.832 365.93 142.383 366.078 142.871 366.23 143.281 366.363L144.68 366.449C144.789 366.453 144.902 366.465 145.016 366.473 146.648 366.605 148.262 366.789 149.836 367.027 151.016 366.91 152.23 366.801 153.488 366.738 154.605 366.641 155.578 366.641 156.32 366.652 157.715 366.281 159.086 365.961 160.414 365.688 161.219 365.523 162.027 365.371 162.828 365.238L164.055 364.707C164.172 364.656 164.285 364.609 164.398 364.562 166.414 363.746 168.051 363.164 169.32 362.746 170.488 362.023 172.062 361.094 173.988 360.062 174.113 359.996 174.238 359.934 174.367 359.871L175.434 359.34C176.141 358.738 176.848 358.16 177.547 357.609 178.711 356.688 179.895 355.809 181.066 354.992 181.613 354.367 182.32 353.562 183.219 352.711 184.215 351.691 185.199 350.77 186.094 349.949 187.164 348.473 188.238 347.078 189.301 345.785 189.395 345.672 189.492 345.555 189.59 345.441 189.941 345.039 190.297 344.633 190.652 344.223 190.656 344.219 190.66 344.211 190.664 344.203 190.984 343.637 191.309 343.078 191.641 342.551 192.711 340.781 193.844 339.055 195.02 337.406 198.578 330.457 201.605 323.062 203.797 315.934 205.473 308.992 206.617 301.477 207.207 293.57 207.086 291.328 207.039 289.422 207.066 287.652 207.062 287.094 207.082 286.559 207.105 286.027L206.883 284.301C206.867 284.203 206.855 284.105 206.844 284.004 206.66 282.387 206.539 280.867 206.473 279.406 206.203 278.176 205.945 276.93 205.734 275.68 204.48 269.289 202.98 265 202.172 262.688 201.273 260.125 199.176 254.125 203.219 247.871 205.73 243.98 209.922 241.461 214.535 241.059 222.121 240.406 228.875 245.508 230.477 252.746 230.48 252.754 230.484 252.766 230.484 252.773 231.48 255.613 233.551 261.523 235.223 270.168 235.254 270.316 235.281 270.465 235.305 270.613 235.453 271.547 235.746 272.855 236.059 274.242 236.281 275.238 236.402 276.266 236.422 277.285 236.434 278.23 236.512 279.32 236.641 280.523L236.98 283.113C237.02 283.398 237.047 283.684 237.066 283.969 237.172 285.406 237.113 286.605 237.078 287.32L237.066 287.605C237.066 287.727 237.066 287.848 237.062 287.973 237.043 289.242 237.09 290.809 237.211 292.762 237.246 293.406 237.246 294.055 237.203 294.699 236.512 304.805 235.039 314.488 232.836 323.477 232.773 323.742 232.699 324.004 232.621 324.266 229.746 333.727 225.875 343.141 221.117 352.242 220.758 352.93 220.352 353.582 219.895 354.203 218.965 355.461 218.102 356.758 217.254 358.168 217.168 358.309 217.086 358.445 216.996 358.578 216.941 358.676 216.852 358.832 216.766 358.988 216.301 359.809 215.664 360.934 214.758 362.148 214.539 362.441 214.312 362.727 214.07 363.004 213.492 363.676 212.918 364.336 212.348 364.988 211.48 366.055 210.574 367.258 209.66 368.566 209.008 369.504 208.25 370.359 207.402 371.121 206.207 372.195 205.301 373.02 204.516 373.84 204.328 374.031 204.137 374.219 203.941 374.402 203.836 374.523 203.727 374.648 203.621 374.77 202.578 375.969 200.891 377.91 198.348 379.516 197.641 379.996 196.906 380.539 196.164 381.129 195.371 381.754 194.562 382.434 193.742 383.156 192.766 384.02 191.684 384.75 190.52 385.332L187.949 386.617C185.625 387.867 184.211 388.828 184.195 388.84 182.551 389.988 180.758 390.758 178.914 391.172 178.363 391.344 177.324 391.691 175.84 392.293L172.973 393.535C171.668 394.102 170.293 394.48 168.883 394.66 168.105 394.762 167.285 394.898 166.441 395.074 165.516 395.262 164.547 395.496 163.547 395.773 160.27 396.793 157.527 396.703 156.016 396.652L155.863 396.648C155.629 396.668 155.391 396.684 155.156 396.691 154.301 396.723 153.129 396.844 151.887 396.969L150.812 397.074C150.324 397.125 149.836 397.148 149.344 397.148 148.43 397.148 147.52 397.062 146.617 396.898 145.391 396.668 144.078 396.496 142.719 396.383L139.906 396.211C139.426 396.184 138.945 396.133 138.473 396.059 136.59 395.77 135.094 395.262 134.199 394.957L133.938 394.871C133.781 394.828 133.629 394.785 133.473 394.738 132.051 394.312 130.367 393.898 128.324 393.477 127.434 393.289 126.562 393.027 125.719 392.684 114.73 388.215 104.387 381.914 94.9766 373.961 94.7617 373.781 94.5508 373.594 94.3477 373.398 85.0195 364.57 76.2188 353.688 68.1836 341.055 67.918 340.633 67.668 340.199 67.4453 339.75 66.0156 336.906 64.5469 334.129 63.0781 331.488 63.0234 331.391 62.9727 331.289 62.918 331.191 62.6953 330.77 62.457 330.359 62.2188 329.945 61.6445 328.949 60.9297 327.707 60.2461 326.254 60.1484 326.043 60.0547 325.828 59.9648 325.613L58.1016 321.121C56.9805 318.484 55.7656 315.762 54.3984 312.805 54.1602 312.289 53.9492 311.762 53.7734 311.227L50.8359 302.391C50.8047 302.293 50.7734 302.195 50.7422 302.094 50.5195 301.383 50.1992 300.527 49.8633 299.617 49.1562 297.727 48.2812 295.391 47.6914 292.711L45.8086 285.168 43.9453 278.25C43.8164 277.77 43.7148 277.285 43.6328 276.793L42.5977 270.562C41.3672 263.414 40.4805 259.051 40.4688 259.008 40.4531 258.934 40.4492 258.859 40.4375 258.785 40.3906 258.551 40.3594 258.312 40.3281 258.074 40.2891 257.812 40.2539 257.551 40.2305 257.289 40.2227 257.242 40.2148 257.195 40.2109 257.145 40.207 257.105 39.8711 252.805 39.0352 245.176 38.8164 243.215 38.5625 240.984 38.2812 238.551 38.2305 238.105 38.1992 237.656 38.1875 237.203L38 229.477 37.6484 220.656C37.4688 217.801 37.6172 215.223 37.75 212.941 37.8164 211.762 37.8828 210.648 37.8906 209.613 37.8906 209.52 37.8945 209.426 37.8984 209.332L38.2305 198.117C38.2422 197.672 38.2773 197.227 38.3281 196.781 38.7773 193.059 39.2031 189.172 39.5977 185.219L40.1992 178.934C40.2148 178.773 40.2344 178.613 40.2539 178.453 40.4805 176.684 40.7891 175.078 41.0625 173.66 41.1953 172.977 41.3281 172.285 41.4453 171.582L42.8789 163.203C50.375 137.637 61.0273 114.168 74.5391 93.9023 102.016 52.6953 137.93 30 175.664 30 176.41 30 177.156 30.0234 177.898 30.043ZM30.0078 254.992C30.3203 257.148 31.0664 262.348 32.1641 269.988 32.5039 272.414 32.8594 275.02 33.25 277.836L35.2305 286.824C35.2383 286.859 35.2461 286.895 35.2539 286.93L37.5391 297.656C37.5625 297.77 37.5859 297.883 37.6055 297.996 37.8984 299.527 38.4961 301.445 39.1289 303.473 39.5938 304.961 40.0742 306.496 40.5352 308.18L43.8906 319.66C45.3555 323.465 46.8633 327.391 48.4102 331.422 48.4258 331.469 48.4414 331.512 48.4609 331.559L50.7266 337.633C51.0781 338.449 51.543 339.395 52.0312 340.391 52.457 341.254 52.8828 342.121 53.2891 343L58.918 354.949C67.3242 370.105 77.0469 383.84 87.0664 394.707 96.5586 404.16 107.367 412.215 118.387 418.039L126.383 421.121C127.156 421.414 127.918 421.738 128.672 422.062 128.875 422.152 129.074 422.242 129.277 422.328L132.582 423.031C132.645 423.047 132.711 423.059 132.773 423.074 135.121 423.602 137.484 424.18 139.824 424.793L145.598 425.18C147.129 425.238 148.453 425.406 149.438 425.531 149.668 425.562 149.898 425.598 150.125 425.621 150.164 425.621 150.203 425.617 150.242 425.613L156.348 425.066C156.508 425.055 156.672 425.043 156.832 425.031L160.598 424.824 163.68 424.035C163.715 424.027 163.746 424.02 163.781 424.012 167.105 423.195 169.594 422.66 171.168 422.344 172.691 421.684 175.145 420.652 178.312 419.422 178.371 419.402 178.43 419.379 178.488 419.355L181.328 418.297C182.43 417.629 183.59 416.922 184.812 416.184 184.965 416.09 185.121 415.996 185.281 415.91L190.566 412.953C190.625 412.918 190.684 412.887 190.746 412.852 190.977 412.668 191.324 412.375 191.594 412.148 192.41 411.461 193.418 410.613 194.613 409.762L199.379 406.199C201.211 404.309 203.039 402.488 204.828 400.77 204.875 400.727 204.922 400.684 204.969 400.641L207.508 398.27C207.672 398.062 207.926 397.73 208.129 397.469 208.59 396.871 209.055 396.277 209.523 395.715 211.344 393.441 213.242 391.176 215.176 388.969 221.961 379.152 228.02 368.109 232.73 356.965 236.922 345.75 240.254 333.453 242.648 320.398 242.984 316.832 243.328 313.742 243.691 310.984 243.781 310.219 243.891 309.473 244 308.73 244.066 308.281 244.137 307.824 244.172 307.516L244.281 303.41C244.281 303.359 244.285 303.309 244.285 303.258 244.387 300.527 244.535 297.828 244.734 295.219L244.711 294.617C244.609 292.379 244.516 290.258 244.473 288.141 244.406 286.746 244.426 285.523 244.441 284.523 244.449 283.941 244.461 283.141 244.434 282.879 244.41 282.738 244.402 282.664 244.383 282.523 244.094 280.23 243.848 277.941 243.645 275.723 243.5 274.117 243.371 272.496 243.27 270.895L242.578 267.293C242.566 267.227 242.555 267.156 242.539 267.09 241.855 263.297 241.465 260.586 241.262 259.051 240.832 257.555 240.109 254.922 239.27 251.391 239.25 251.316 239.234 251.242 239.219 251.172L238.547 248.145C238.051 246.852 237.562 245.527 237.098 244.203 236.398 242.215 235.785 240.336 235.23 238.465 235.133 238.266 235.027 238.07 234.926 237.871 234.535 237.109 234.02 236.098 233.52 234.895 232.805 233.32 232.156 231.746 231.562 230.281 230.539 228.625 229.574 226.957 228.676 225.301 228.621 225.195 228.566 225.09 228.512 224.984L227.582 223.172C227.195 222.676 226.812 222.18 226.449 221.664 225.277 220.07 224.133 218.387 223.043 216.641 218.883 211.855 214.539 207.82 210.398 204.895 207.215 203.215 203.824 202.004 200.281 201.285 199.113 201.383 198 201.426 196.93 201.406 196.918 201.41 196.906 201.414 196.895 201.418 196 201.645 195.125 201.828 194.266 201.973 193.773 202.199 193.258 202.418 192.723 202.629 189.594 204.039 187.41 205.754 186.094 206.793 179.246 212.188 173.215 211.184 169.359 209.391 164.23 207.004 160.859 201.898 160.676 196.246 160.488 190.586 163.465 185.555 168.008 182.852 170.219 181.121 174.691 177.762 181.016 175 181.273 174.891 181.535 174.781 181.805 174.684 182.066 174.574 182.715 174.246 183.191 174.008L183.301 173.953C185.176 173.016 187.223 172.48 189.312 172.383 189.324 172.383 189.336 172.379 189.348 172.379L190.84 171.938C191.414 171.77 192.004 171.637 192.598 171.539 194.711 171.191 196.445 171.316 197.383 171.41 197.473 171.434 197.855 171.406 198.703 171.289 200.152 171.086 201.621 171.098 203.07 171.32 210.984 172.543 218.535 175.113 225.516 178.969 225.934 179.199 226.344 179.449 226.738 179.719 233.562 184.387 240.254 190.559 246.621 198.055 247.145 198.664 247.613 199.32 248.027 200.004 248.891 201.434 249.762 202.738 250.691 203.996 250.781 204.117 250.867 204.238 250.953 204.363 250.996 204.418 251.09 204.535 251.184 204.652 251.719 205.336 252.531 206.367 253.332 207.707 253.5 207.992 253.66 208.281 253.812 208.578L255.141 211.172C255.898 212.566 256.738 213.988 257.633 215.395 258.129 216.176 258.555 217.004 258.898 217.863 259.562 219.512 260.246 221.219 260.922 222.684 261.027 222.922 261.133 223.164 261.23 223.406 261.34 223.656 261.492 223.934 261.637 224.215 262.324 225.559 263.344 227.555 264.035 230.09 264.438 231.43 264.887 232.797 265.398 234.254 265.875 235.617 266.383 236.977 266.898 238.285 267.188 239.02 267.418 239.77 267.586 240.535L268.477 244.559C269.516 248.902 270.324 251.562 270.332 251.59 270.398 251.801 270.441 252.02 270.496 252.234 270.559 252.477 270.629 252.715 270.68 252.965 270.738 253.254 270.777 253.539 270.82 253.828 270.848 254.012 270.887 254.195 270.906 254.383 270.93 254.562 271.227 257.129 272.047 261.668 272.254 262.73 272.473 263.875 272.703 265.098L272.914 266.199C273.039 266.852 273.121 267.512 273.16 268.172 273.25 269.754 273.371 271.379 273.52 273 273.688 274.836 273.891 276.723 274.129 278.617 274.492 281.129 274.457 283.336 274.434 284.965 274.426 285.691 274.414 286.32 274.441 286.793 274.453 286.984 274.461 287.176 274.465 287.367 274.492 289.152 274.586 291.156 274.68 293.273L274.746 294.824C274.773 295.449 274.766 296.078 274.715 296.699 274.516 299.137 274.363 301.688 274.27 304.281L274.148 308.75C274.145 308.957 274.133 309.164 274.121 309.371 274.02 310.871 273.824 312.164 273.668 313.203 273.602 313.621 273.535 314.047 273.488 314.48 273.477 314.586 273.465 314.695 273.449 314.801 273.109 317.359 272.785 320.312 272.461 323.82 272.422 324.254 272.363 324.684 272.285 325.113 269.543 340.277 265.648 354.633 260.715 367.781 260.645 367.965 260.574 368.145 260.496 368.324 254.855 381.738 247.527 395.055 239.301 406.824 238.977 407.289 238.621 407.738 238.246 408.164 236.398 410.258 234.578 412.418 232.848 414.582 232.77 414.68 232.691 414.773 232.613 414.867 232.359 415.168 232.117 415.488 231.871 415.809 231.148 416.742 230.254 417.902 229.121 419.094 228.914 419.309 228.703 419.52 228.484 419.727L225.523 422.488C223.777 424.168 221.977 425.969 220.176 427.855 219.602 428.453 218.984 429.004 218.32 429.496L212.406 433.914C212.285 434.004 212.164 434.094 212.039 434.18 211.836 434.324 211.305 434.773 210.914 435.102 209.449 436.332 207.484 437.988 204.887 439.316L200.164 441.957C198.562 442.934 197.059 443.844 195.66 444.691 194.863 445.172 194.023 445.578 193.152 445.906L189.066 447.43C184.629 449.152 181.953 450.371 181.926 450.387 181.805 450.441 181.684 450.477 181.562 450.527 181.301 450.641 181.035 450.746 180.77 450.844 180.531 450.93 180.293 451.008 180.055 451.082 179.809 451.156 179.559 451.223 179.309 451.285 179.043 451.352 178.777 451.414 178.512 451.469 178.422 451.484 178.336 451.512 178.246 451.527 178.156 451.543 175.57 452.008 171.008 453.129L166.59 454.258C165.652 454.496 164.695 454.645 163.727 454.699L158.742 454.973 153.27 455.461C152.211 455.598 151.203 455.648 150.27 455.648 148.402 455.648 146.816 455.445 145.613 455.289 145.207 455.238 144.652 455.164 144.461 455.156 144.254 455.152 144.059 455.145 143.852 455.129L136.395 454.633C135.406 454.566 134.426 454.406 133.473 454.148 131.09 453.504 128.664 452.902 126.262 452.363L122.117 451.477C121.758 451.398 121.398 451.309 121.043 451.203 119.293 450.695 117.828 450.059 116.762 449.598 116.445 449.461 116.125 449.316 115.801 449.195 115.75 449.176 115.703 449.16 115.656 449.141L106.789 445.727C106.27 445.527 105.762 445.297 105.266 445.039 98.2773 441.402 91.5039 437.172 84.9922 432.379 81.3906 427.898 77.8984 423.137 74.5391 418.094 45.8164 375.012 30 317.445 30 256 30 255.664 30.0078 255.328 30.0078 254.992ZM173.43 481.957 181.801 479.25C181.855 479.234 181.906 479.219 181.961 479.199L186.391 477.82 191.707 475.184C191.77 475.152 191.828 475.121 191.891 475.094 194.129 474.023 196.516 472.879 199.031 471.668 199.203 471.586 199.375 471.508 199.551 471.434 199.965 471.203 200.938 470.523 201.652 470.02 202.672 469.301 203.816 468.496 205.117 467.691L212.246 463.004 219.734 456.531C219.785 456.484 219.84 456.441 219.891 456.398L223.754 453.156C224.145 452.762 224.684 452.164 225.207 451.586 225.801 450.93 226.398 450.273 227 449.641L234.867 441.309C244.957 428.691 254.141 414.016 261.453 398.816 268.195 383.617 273.949 366.148 278.105 348.254L280.309 335.391C280.457 334.496 280.637 333.566 280.812 332.641 281.012 331.613 281.188 330.711 281.297 329.922L281.875 323.852C282.262 319.965 282.684 316.102 283.133 312.316L283.441 301.902C283.465 300.234 283.551 298.699 283.629 297.34 283.727 295.664 283.809 294.215 283.734 293.145 283.727 293.004 283.719 292.867 283.715 292.73L283.348 283.598C283.348 283.523 283.344 283.445 283.34 283.371L283.168 276.184 282.477 270.145C281.797 263.914 281.43 259.789 281.285 258.066 280.941 256.34 280.16 252.273 279.156 246.434L278.227 240.84 276.516 234.484C276.488 234.395 276.465 234.305 276.445 234.215L274.473 226.301C274.43 226.125 274.387 225.949 274.352 225.773 274.227 225.176 273.793 224.012 273.371 222.891 272.938 221.727 272.445 220.41 271.984 218.938L269.352 211.023C268.004 208.094 266.77 205.316 265.594 202.547 265.578 202.512 265.562 202.477 265.551 202.441L263.82 198.285C263.648 197.949 263.371 197.465 263.102 196.996 262.711 196.316 262.32 195.637 261.953 194.941 260.449 192.238 258.934 189.379 257.438 186.426 251.012 176.41 243.848 167.527 236.668 160.676 230.102 155.18 222.98 150.781 215.48 147.59 213.305 147.113 211.34 146.613 209.508 146.074 208.953 145.926 208.461 145.77 208.055 145.637L206.621 145.551C206.516 145.543 206.406 145.535 206.301 145.527 204.684 145.395 203.074 145.211 201.504 144.973 200.316 145.09 199.098 145.199 197.836 145.258 196.723 145.359 195.758 145.359 195.016 145.348 193.602 145.723 192.223 146.047 190.906 146.316 190.094 146.48 189.285 146.633 188.492 146.762L187.203 147.32C187.109 147.359 187.02 147.398 186.926 147.438 184.914 148.254 183.281 148.832 182.016 149.246 180.852 149.973 179.273 150.902 177.344 151.934 177.223 152 177.098 152.062 176.973 152.125L175.898 152.66C175.191 153.258 174.496 153.828 173.797 154.383 172.621 155.312 171.438 156.191 170.27 157.004 169.723 157.633 169.012 158.441 168.105 159.301 167.117 160.305 166.137 161.227 165.242 162.047 164.168 163.527 163.105 164.902 162.027 166.215 161.938 166.328 161.844 166.438 161.746 166.547L160.676 167.781C160.668 167.797 160.66 167.809 160.656 167.82 160.34 168.375 160.02 168.926 159.695 169.441 158.629 171.211 157.496 172.938 156.32 174.59 152.758 181.531 149.73 188.926 147.535 196.062 145.855 203.02 144.711 210.535 144.129 218.426 144.246 220.664 144.293 222.57 144.266 224.34 144.27 224.992 144.246 225.555 144.227 225.977L144.453 227.738C144.465 227.816 144.477 227.898 144.484 227.977 144.664 229.566 144.789 231.109 144.855 232.59 145.129 233.84 145.391 235.078 145.598 236.32 146.848 242.707 148.352 246.992 149.16 249.305 150.059 251.875 152.168 257.895 148.09 264.16 145.555 268.059 141.336 270.57 136.703 270.941 136.293 270.977 135.887 270.992 135.484 270.992 128.434 270.992 122.359 266.055 120.855 259.246 120.852 259.238 120.848 259.227 120.844 259.219 119.852 256.379 117.781 250.469 116.105 241.828 116.078 241.676 116.051 241.52 116.023 241.363 115.879 240.469 115.594 239.195 115.293 237.848 115.07 236.848 114.926 235.734 114.91 234.715 114.895 233.75 114.82 232.664 114.688 231.484L114.348 228.883C114.312 228.594 114.281 228.301 114.262 228.012 114.156 226.582 114.219 225.391 114.254 224.68L114.266 224.402C114.266 224.273 114.266 224.145 114.266 224.016 114.289 222.75 114.242 221.188 114.121 219.234 114.086 218.59 114.086 217.945 114.129 217.301 114.816 207.207 116.285 197.523 118.492 188.52 118.559 188.258 118.633 187.992 118.711 187.734 121.59 178.258 125.461 168.84 130.223 159.746 130.574 159.07 130.977 158.426 131.43 157.812 132.352 156.559 133.242 155.215 134.082 153.82 134.156 153.695 134.234 153.57 134.312 153.449 134.383 153.336 134.473 153.172 134.562 153.012 135.027 152.191 135.664 151.07 136.559 149.863 136.785 149.562 137.02 149.27 137.266 148.984L138.973 147.02C139.844 145.949 140.75 144.742 141.676 143.422 142.324 142.492 143.078 141.641 143.918 140.883 144.938 139.965 145.988 139.016 146.84 138.137 147.016 137.953 147.195 137.777 147.379 137.605 147.488 137.484 147.598 137.355 147.707 137.23 148.746 136.035 150.43 134.098 152.961 132.496 153.684 132.004 154.43 131.449 155.184 130.855 155.953 130.246 156.742 129.582 157.59 128.832 158.566 127.969 159.652 127.238 160.82 126.656L163.379 125.379C165.703 124.125 167.121 123.16 167.137 123.152 168.734 122.035 170.477 121.289 172.258 120.871 172.766 120.715 173.859 120.355 175.496 119.695L178.391 118.445C179.691 117.883 181.066 117.508 182.473 117.328 183.215 117.234 184.035 117.098 184.906 116.918 185.797 116.738 186.762 116.504 187.781 116.223 191.059 115.203 193.801 115.293 195.309 115.34L195.457 115.344C195.703 115.324 195.945 115.309 196.191 115.301 197.102 115.266 198.344 115.141 199.656 115.004L200.484 114.922C201.887 114.781 203.305 114.836 204.691 115.094 205.945 115.32 207.262 115.496 208.617 115.613L211.504 115.789C211.938 115.816 212.367 115.863 212.797 115.93 214.723 116.219 216.242 116.734 217.152 117.047L217.422 117.133C217.555 117.172 217.688 117.207 217.82 117.246 219.285 117.684 220.977 118.098 222.992 118.512 223.887 118.699 224.762 118.965 225.609 119.309 236.594 123.777 246.938 130.074 256.352 138.027 256.566 138.211 256.777 138.398 256.98 138.594 266.305 147.418 275.109 158.301 283.145 170.938 283.41 171.359 283.656 171.793 283.883 172.238 285.332 175.121 286.801 177.898 288.246 180.5 288.305 180.602 288.359 180.703 288.41 180.805 288.633 181.223 288.871 181.629 289.105 182.035 289.684 183.043 290.406 184.297 291.094 185.77 291.188 185.969 291.273 186.172 291.359 186.375L293.227 190.867C294.371 193.562 295.582 196.281 296.926 199.18 297.164 199.695 297.371 200.219 297.551 200.758L300.492 209.602C300.527 209.703 300.559 209.805 300.59 209.906 300.812 210.621 301.133 211.48 301.473 212.387 302.176 214.277 303.047 216.609 303.641 219.285L305.516 226.82 307.383 233.738C307.512 234.223 307.617 234.711 307.699 235.203L308.734 241.434C309.961 248.578 310.848 252.938 310.855 252.98 310.871 253.043 310.875 253.105 310.887 253.168 310.926 253.387 310.953 253.609 310.988 253.828 311.031 254.121 311.074 254.41 311.098 254.703 311.102 254.75 311.113 254.797 311.117 254.844 311.121 254.887 311.457 259.188 312.289 266.82L313.047 273.445C313.098 273.887 313.129 274.336 313.141 274.781L313.402 284.477 313.68 291.344C313.855 294.191 313.707 296.766 313.578 299.043 313.512 300.227 313.445 301.344 313.434 302.379 313.434 302.473 313.43 302.566 313.43 302.656L313.098 313.867C313.082 314.316 313.051 314.77 312.996 315.219 312.539 319.016 312.109 322.902 311.727 326.762L311.125 333.062C311.109 333.219 311.094 333.379 311.07 333.539 310.844 335.301 310.539 336.898 310.266 338.305 310.133 338.996 310 339.688 309.879 340.395L308.441 348.797C300.945 374.359 290.293 397.824 276.785 418.086 249.32 459.305 213.406 482 175.664 482 174.922 482 174.176 481.977 173.43 481.957Z" fill="#FFFFFF"/></svg>